<svg width="384" height="28" viewBox="0 0 384 28" fill="none" xmlns="http://www.w3.org/2000/svg">
<path d="M16.1777 17.7012C16.1777 19.0605 16.0137 20.332 15.6855 21.5156C15.3574 22.6875 14.877 23.707 14.2441 24.5742C13.6113 25.4414 12.8262 26.1211 11.8887 26.6133C10.9629 27.1055 9.89648 27.3516 8.68945 27.3516C7.4707 27.3516 6.41016 27.1348 5.50781 26.7012C4.61719 26.2676 3.85547 25.6465 3.22266 24.8379L3.06445 27H0.0761719V0H3.32812V10.0195C3.94922 9.24609 4.69922 8.6543 5.57812 8.24414C6.45703 7.83398 7.48242 7.62891 8.6543 7.62891C9.87305 7.62891 10.9512 7.86914 11.8887 8.34961C12.8262 8.83008 13.6113 9.49805 14.2441 10.3535C14.877 11.209 15.3574 12.2344 15.6855 13.4297C16.0137 14.6133 16.1777 15.9141 16.1777 17.332V17.7012ZM12.9258 17.332C12.9258 16.4062 12.832 15.5273 12.6445 14.6953C12.4688 13.8516 12.1816 13.1133 11.7832 12.4805C11.3848 11.8359 10.8633 11.3262 10.2188 10.9512C9.57422 10.5762 8.7832 10.3887 7.8457 10.3887C7.2832 10.3887 6.76758 10.4648 6.29883 10.6172C5.83008 10.7578 5.4082 10.9629 5.0332 11.2324C4.66992 11.4902 4.3418 11.8008 4.04883 12.1641C3.76758 12.5156 3.52734 12.9023 3.32812 13.3242V21.6387C3.53906 22.0605 3.78516 22.4531 4.06641 22.8164C4.35938 23.168 4.69336 23.4785 5.06836 23.748C5.44336 24.0176 5.86523 24.2285 6.33398 24.3809C6.80273 24.5215 7.31836 24.5918 7.88086 24.5918C8.77148 24.5918 9.5332 24.4102 10.166 24.0469C10.8105 23.6719 11.332 23.168 11.7305 22.5352C12.1406 21.9023 12.4395 21.1699 12.627 20.3379C12.8262 19.5059 12.9258 18.627 12.9258 17.7012V17.332ZM34.1426 7.62891C34.4473 7.62891 34.7637 7.64063 35.0918 7.66406C35.4199 7.67578 35.7305 7.70508 36.0234 7.75195C36.3281 7.78711 36.6035 7.83398 36.8496 7.89258C37.1074 7.95117 37.3184 8.01562 37.4824 8.08594L37.043 11.2676C36.4102 11.127 35.8066 11.0273 35.2324 10.9688C34.6699 10.8984 34.0781 10.8633 33.457 10.8633C31.9336 10.8633 30.6973 11.209 29.748 11.9004C28.8105 12.5918 28.1191 13.5586 27.6738 14.8008V27H24.4043V7.98047H27.498L27.6562 11.0039C28.4297 9.96094 29.3555 9.14062 30.4336 8.54297C31.5234 7.93359 32.7598 7.62891 34.1426 7.62891ZM55.7988 27C55.6699 26.7539 55.5645 26.4492 55.4824 26.0859C55.4121 25.7109 55.3594 25.3242 55.3242 24.9258C54.9961 25.2539 54.627 25.5645 54.2168 25.8574C53.8184 26.1504 53.373 26.4082 52.8809 26.6309C52.4004 26.8535 51.8848 27.0293 51.334 27.1582C50.7832 27.2871 50.1973 27.3516 49.5762 27.3516C48.5684 27.3516 47.6543 27.2051 46.834 26.9121C46.0254 26.6191 45.334 26.2266 44.7598 25.7344C44.1973 25.2305 43.7578 24.6387 43.4414 23.959C43.1367 23.2676 42.9844 22.5234 42.9844 21.7266C42.9844 20.6836 43.1895 19.7695 43.5996 18.9844C44.0215 18.1992 44.6133 17.5488 45.375 17.0332C46.1367 16.5059 47.0508 16.1133 48.1172 15.8555C49.1953 15.5977 50.3965 15.4688 51.7207 15.4688H55.2715V13.9746C55.2715 13.4004 55.166 12.8848 54.9551 12.4277C54.7441 11.9707 54.4453 11.584 54.0586 11.2676C53.6719 10.9395 53.1973 10.6875 52.6348 10.5117C52.084 10.3359 51.4629 10.248 50.7715 10.248C50.127 10.248 49.5469 10.3301 49.0312 10.4941C48.5273 10.6582 48.0996 10.875 47.748 11.1445C47.3965 11.4141 47.1211 11.7363 46.9219 12.1113C46.7344 12.4746 46.6406 12.8555 46.6406 13.2539H43.3711C43.3828 12.5625 43.5586 11.8828 43.8984 11.2148C44.25 10.5469 44.748 9.94922 45.3926 9.42188C46.0488 8.88281 46.8398 8.44922 47.7656 8.12109C48.7031 7.79297 49.7637 7.62891 50.9473 7.62891C52.0254 7.62891 53.0273 7.76367 53.9531 8.0332C54.8789 8.29102 55.6758 8.68945 56.3438 9.22852C57.0234 9.75586 57.5566 10.418 57.9434 11.2148C58.3301 12.0117 58.5234 12.9434 58.5234 14.0098V22.8516C58.5234 23.4844 58.582 24.1582 58.6992 24.873C58.8164 25.5762 58.9805 26.1914 59.1914 26.7188V27H55.7988ZM50.0508 24.5215C50.6836 24.5215 51.2754 24.4395 51.8262 24.2754C52.377 24.1113 52.875 23.8945 53.3203 23.625C53.7773 23.3555 54.1699 23.0508 54.498 22.7109C54.8262 22.3594 55.084 21.9961 55.2715 21.6211V17.7715H52.248C50.3496 17.7715 48.873 18.0527 47.8184 18.6152C46.7637 19.1777 46.2363 20.0625 46.2363 21.2695C46.2363 21.7383 46.3125 22.1719 46.4648 22.5703C46.6289 22.9688 46.8691 23.3145 47.1855 23.6074C47.502 23.8887 47.9004 24.1113 48.3809 24.2754C48.8613 24.4395 49.418 24.5215 50.0508 24.5215ZM67.8398 7.98047L68.0684 10.793C68.7598 9.80859 69.6094 9.04102 70.6172 8.49023C71.625 7.92773 72.75 7.64063 73.9922 7.62891C74.9883 7.62891 75.8906 7.76953 76.6992 8.05078C77.5195 8.33203 78.2168 8.77148 78.791 9.36914C79.3652 9.9668 79.8047 10.7285 80.1094 11.6543C80.4258 12.5684 80.584 13.6582 80.584 14.9238V27H77.332V14.9941C77.332 14.1504 77.2383 13.4355 77.0508 12.8496C76.8633 12.2637 76.582 11.7891 76.207 11.4258C75.8438 11.0625 75.3926 10.7988 74.8535 10.6348C74.3262 10.4707 73.7168 10.3887 73.0254 10.3887C71.9355 10.3887 70.9746 10.6641 70.1426 11.2148C69.3223 11.7539 68.666 12.4688 68.1738 13.3594V27H64.9219V7.98047H67.8398ZM85.9277 17.332C85.9277 15.9141 86.1035 14.6133 86.4551 13.4297C86.8184 12.2344 87.3281 11.209 87.9844 10.3535C88.6523 9.49805 89.4551 8.83008 90.3926 8.34961C91.3301 7.86914 92.3789 7.62891 93.5391 7.62891C94.6758 7.62891 95.666 7.82227 96.5098 8.20898C97.3652 8.58398 98.1035 9.13477 98.7246 9.86133V0H101.977V27H98.9883L98.8477 24.9961C98.2148 25.7695 97.459 26.3555 96.5801 26.7539C95.7012 27.1523 94.6758 27.3516 93.5039 27.3516C92.3555 27.3516 91.3125 27.1055 90.375 26.6133C89.4492 26.1211 88.6582 25.4414 88.002 24.5742C87.3457 23.707 86.8359 22.6875 86.4727 21.5156C86.1094 20.332 85.9277 19.0605 85.9277 17.7012V17.332ZM89.1797 17.7012C89.1797 18.627 89.2793 19.5059 89.4785 20.3379C89.6777 21.1699 89.9824 21.9023 90.3926 22.5352C90.8145 23.168 91.3477 23.6719 91.9922 24.0469C92.6367 24.4102 93.4102 24.5918 94.3125 24.5918C94.8633 24.5918 95.3613 24.5273 95.8066 24.3984C96.252 24.2695 96.6562 24.0879 97.0195 23.8535C97.3828 23.6074 97.7051 23.3203 97.9863 22.9922C98.2676 22.6523 98.5137 22.2773 98.7246 21.8672V13.043C98.3027 12.2695 97.7344 11.6367 97.0195 11.1445C96.3047 10.6406 95.4141 10.3887 94.3477 10.3887C93.4336 10.3887 92.6484 10.5762 91.9922 10.9512C91.3477 11.3262 90.8145 11.8359 90.3926 12.4805C89.9824 13.1133 89.6777 13.8516 89.4785 14.6953C89.2793 15.5273 89.1797 16.4062 89.1797 17.332V17.7012ZM120.504 24.3809C119.871 25.3184 119.08 26.0508 118.131 26.5781C117.182 27.0938 116.086 27.3516 114.844 27.3516C113.848 27.3516 112.945 27.1992 112.137 26.8945C111.328 26.5781 110.637 26.0918 110.062 25.4355C109.488 24.7793 109.043 23.9473 108.727 22.9395C108.422 21.9199 108.27 20.7012 108.27 19.2832V7.98047H111.521V19.3184C111.521 20.3496 111.604 21.2051 111.768 21.8848C111.932 22.5645 112.178 23.1094 112.506 23.5195C112.834 23.918 113.232 24.1992 113.701 24.3633C114.182 24.5273 114.732 24.6094 115.354 24.6094C116.678 24.6094 117.744 24.3398 118.553 23.8008C119.373 23.2617 119.982 22.5352 120.381 21.6211V7.98047H123.65V27H120.697L120.504 24.3809ZM142.248 7.62891C142.553 7.62891 142.869 7.64063 143.197 7.66406C143.525 7.67578 143.836 7.70508 144.129 7.75195C144.434 7.78711 144.709 7.83398 144.955 7.89258C145.213 7.95117 145.424 8.01562 145.588 8.08594L145.148 11.2676C144.516 11.127 143.912 11.0273 143.338 10.9688C142.775 10.8984 142.184 10.8633 141.562 10.8633C140.039 10.8633 138.803 11.209 137.854 11.9004C136.916 12.5918 136.225 13.5586 135.779 14.8008V27H132.51V7.98047H135.604L135.762 11.0039C136.535 9.96094 137.461 9.14062 138.539 8.54297C139.629 7.93359 140.865 7.62891 142.248 7.62891ZM151.916 7.98047H161.637V24.1875H167.842V27H151.916V24.1875H158.385V10.8105H151.916V7.98047ZM157.963 2.98828C157.963 2.44922 158.121 1.99805 158.438 1.63477C158.766 1.25977 159.258 1.07227 159.914 1.07227C160.559 1.07227 161.045 1.25977 161.373 1.63477C161.701 1.99805 161.865 2.44922 161.865 2.98828C161.865 3.51562 161.701 3.95508 161.373 4.30664C161.045 4.6582 160.559 4.83398 159.914 4.83398C159.258 4.83398 158.766 4.6582 158.438 4.30664C158.121 3.95508 157.963 3.51562 157.963 2.98828Z" fill="#13B7FF"/>
<path d="M194.033 17.332C194.033 15.9141 194.209 14.6133 194.561 13.4297C194.924 12.2344 195.434 11.209 196.09 10.3535C196.758 9.49805 197.561 8.83008 198.498 8.34961C199.436 7.86914 200.484 7.62891 201.645 7.62891C202.781 7.62891 203.771 7.82227 204.615 8.20898C205.471 8.58398 206.209 9.13477 206.83 9.86133V0H210.082V27H207.094L206.953 24.9961C206.32 25.7695 205.564 26.3555 204.686 26.7539C203.807 27.1523 202.781 27.3516 201.609 27.3516C200.461 27.3516 199.418 27.1055 198.48 26.6133C197.555 26.1211 196.764 25.4414 196.107 24.5742C195.451 23.707 194.941 22.6875 194.578 21.5156C194.215 20.332 194.033 19.0605 194.033 17.7012V17.332ZM197.285 17.7012C197.285 18.627 197.385 19.5059 197.584 20.3379C197.783 21.1699 198.088 21.9023 198.498 22.5352C198.92 23.168 199.453 23.6719 200.098 24.0469C200.742 24.4102 201.516 24.5918 202.418 24.5918C202.969 24.5918 203.467 24.5273 203.912 24.3984C204.357 24.2695 204.762 24.0879 205.125 23.8535C205.488 23.6074 205.811 23.3203 206.092 22.9922C206.373 22.6523 206.619 22.2773 206.83 21.8672V13.043C206.408 12.2695 205.84 11.6367 205.125 11.1445C204.41 10.6406 203.52 10.3887 202.453 10.3887C201.539 10.3887 200.754 10.5762 200.098 10.9512C199.453 11.3262 198.92 11.8359 198.498 12.4805C198.088 13.1133 197.783 13.8516 197.584 14.6953C197.385 15.5273 197.285 16.4062 197.285 17.332V17.7012ZM224.672 27.3516C223.336 27.3516 222.105 27.123 220.98 26.666C219.867 26.209 218.912 25.5703 218.115 24.75C217.318 23.9297 216.697 22.957 216.252 21.832C215.807 20.707 215.584 19.4824 215.584 18.1582V17.4199C215.584 15.8848 215.83 14.5137 216.322 13.3066C216.814 12.0879 217.465 11.0625 218.273 10.2305C219.094 9.38672 220.02 8.74219 221.051 8.29688C222.094 7.85156 223.16 7.62891 224.25 7.62891C225.621 7.62891 226.816 7.86914 227.836 8.34961C228.867 8.81836 229.723 9.47461 230.402 10.3184C231.082 11.1504 231.586 12.1348 231.914 13.2715C232.254 14.4082 232.424 15.6387 232.424 16.9629V18.4219H218.836C218.871 19.2891 219.035 20.1035 219.328 20.8652C219.633 21.627 220.043 22.2949 220.559 22.8691C221.086 23.4316 221.713 23.877 222.439 24.2051C223.166 24.5332 223.969 24.6973 224.848 24.6973C226.008 24.6973 227.039 24.4629 227.941 23.9941C228.844 23.5254 229.594 22.9043 230.191 22.1309L232.178 23.6777C231.861 24.1582 231.463 24.6211 230.982 25.0664C230.514 25.5 229.969 25.8867 229.348 26.2266C228.727 26.5664 228.023 26.8359 227.238 27.0352C226.453 27.2461 225.598 27.3516 224.672 27.3516ZM224.25 10.3008C223.594 10.3008 222.973 10.4238 222.387 10.6699C221.801 10.9043 221.273 11.2559 220.805 11.7246C220.336 12.1816 219.938 12.75 219.609 13.4297C219.293 14.0977 219.07 14.8711 218.941 15.75H229.172V15.5039C229.137 14.8711 229.014 14.2441 228.803 13.623C228.604 13.002 228.305 12.4453 227.906 11.9531C227.508 11.4609 227.004 11.0625 226.395 10.7578C225.797 10.4531 225.082 10.3008 224.25 10.3008ZM272.01 27C271.881 26.7539 271.775 26.4492 271.693 26.0859C271.623 25.7109 271.57 25.3242 271.535 24.9258C271.207 25.2539 270.838 25.5645 270.428 25.8574C270.029 26.1504 269.584 26.4082 269.092 26.6309C268.611 26.8535 268.096 27.0293 267.545 27.1582C266.994 27.2871 266.408 27.3516 265.787 27.3516C264.779 27.3516 263.865 27.2051 263.045 26.9121C262.236 26.6191 261.545 26.2266 260.971 25.7344C260.408 25.2305 259.969 24.6387 259.652 23.959C259.348 23.2676 259.195 22.5234 259.195 21.7266C259.195 20.6836 259.4 19.7695 259.811 18.9844C260.232 18.1992 260.824 17.5488 261.586 17.0332C262.348 16.5059 263.262 16.1133 264.328 15.8555C265.406 15.5977 266.607 15.4688 267.932 15.4688H271.482V13.9746C271.482 13.4004 271.377 12.8848 271.166 12.4277C270.955 11.9707 270.656 11.584 270.27 11.2676C269.883 10.9395 269.408 10.6875 268.846 10.5117C268.295 10.3359 267.674 10.248 266.982 10.248C266.338 10.248 265.758 10.3301 265.242 10.4941C264.738 10.6582 264.311 10.875 263.959 11.1445C263.607 11.4141 263.332 11.7363 263.133 12.1113C262.945 12.4746 262.852 12.8555 262.852 13.2539H259.582C259.594 12.5625 259.77 11.8828 260.109 11.2148C260.461 10.5469 260.959 9.94922 261.604 9.42188C262.26 8.88281 263.051 8.44922 263.977 8.12109C264.914 7.79297 265.975 7.62891 267.158 7.62891C268.236 7.62891 269.238 7.76367 270.164 8.0332C271.09 8.29102 271.887 8.68945 272.555 9.22852C273.234 9.75586 273.768 10.418 274.154 11.2148C274.541 12.0117 274.734 12.9434 274.734 14.0098V22.8516C274.734 23.4844 274.793 24.1582 274.91 24.873C275.027 25.5762 275.191 26.1914 275.402 26.7188V27H272.01ZM266.262 24.5215C266.895 24.5215 267.486 24.4395 268.037 24.2754C268.588 24.1113 269.086 23.8945 269.531 23.625C269.988 23.3555 270.381 23.0508 270.709 22.7109C271.037 22.3594 271.295 21.9961 271.482 21.6211V17.7715H268.459C266.561 17.7715 265.084 18.0527 264.029 18.6152C262.975 19.1777 262.447 20.0625 262.447 21.2695C262.447 21.7383 262.523 22.1719 262.676 22.5703C262.84 22.9688 263.08 23.3145 263.396 23.6074C263.713 23.8887 264.111 24.1113 264.592 24.2754C265.072 24.4395 265.629 24.5215 266.262 24.5215ZM293.473 24.3809C292.84 25.3184 292.049 26.0508 291.1 26.5781C290.15 27.0938 289.055 27.3516 287.812 27.3516C286.816 27.3516 285.914 27.1992 285.105 26.8945C284.297 26.5781 283.605 26.0918 283.031 25.4355C282.457 24.7793 282.012 23.9473 281.695 22.9395C281.391 21.9199 281.238 20.7012 281.238 19.2832V7.98047H284.49V19.3184C284.49 20.3496 284.572 21.2051 284.736 21.8848C284.9 22.5645 285.146 23.1094 285.475 23.5195C285.803 23.918 286.201 24.1992 286.67 24.3633C287.15 24.5273 287.701 24.6094 288.322 24.6094C289.646 24.6094 290.713 24.3398 291.521 23.8008C292.342 23.2617 292.951 22.5352 293.35 21.6211V7.98047H296.619V27H293.666L293.473 24.3809ZM315.393 21.9551C315.393 21.5684 315.316 21.2227 315.164 20.918C315.012 20.6016 314.754 20.3145 314.391 20.0566C314.027 19.7988 313.547 19.5645 312.949 19.3535C312.352 19.1309 311.607 18.9316 310.717 18.7559C309.627 18.5332 308.631 18.2637 307.729 17.9473C306.838 17.6309 306.07 17.2559 305.426 16.8223C304.793 16.377 304.301 15.8613 303.949 15.2754C303.598 14.6777 303.422 13.9863 303.422 13.2012C303.422 12.4277 303.604 11.707 303.967 11.0391C304.33 10.3594 304.84 9.76758 305.496 9.26367C306.152 8.75977 306.932 8.36133 307.834 8.06836C308.748 7.77539 309.75 7.62891 310.84 7.62891C312.012 7.62891 313.066 7.78125 314.004 8.08594C314.941 8.39062 315.738 8.8125 316.395 9.35156C317.051 9.89062 317.555 10.5234 317.906 11.25C318.27 11.9648 318.451 12.7383 318.451 13.5703H315.199C315.199 13.1602 315.094 12.7617 314.883 12.375C314.672 11.9766 314.379 11.625 314.004 11.3203C313.629 11.0156 313.172 10.7695 312.633 10.582C312.105 10.3945 311.508 10.3008 310.84 10.3008C310.148 10.3008 309.539 10.377 309.012 10.5293C308.496 10.6816 308.062 10.8867 307.711 11.1445C307.371 11.4023 307.113 11.7012 306.938 12.041C306.762 12.3809 306.674 12.7324 306.674 13.0957C306.674 13.4707 306.744 13.8047 306.885 14.0977C307.025 14.3906 307.266 14.6543 307.605 14.8887C307.957 15.123 308.42 15.334 308.994 15.5215C309.58 15.709 310.318 15.8906 311.209 16.0664C312.381 16.3125 313.43 16.5996 314.355 16.9277C315.281 17.2441 316.061 17.6309 316.693 18.0879C317.326 18.5332 317.807 19.0547 318.135 19.6523C318.475 20.25 318.645 20.9414 318.645 21.7266C318.645 22.5703 318.451 23.3379 318.064 24.0293C317.689 24.7207 317.162 25.3125 316.482 25.8047C315.803 26.2969 314.988 26.6777 314.039 26.9473C313.09 27.2168 312.053 27.3516 310.928 27.3516C309.639 27.3516 308.49 27.1816 307.482 26.8418C306.475 26.4902 305.619 26.0332 304.916 25.4707C304.225 24.8965 303.691 24.2344 303.316 23.4844C302.953 22.7344 302.771 21.9551 302.771 21.1465H306.023C306.07 21.8145 306.246 22.377 306.551 22.834C306.867 23.291 307.254 23.6602 307.711 23.9414C308.18 24.2227 308.695 24.4219 309.258 24.5391C309.82 24.6562 310.377 24.7148 310.928 24.7148C312.299 24.7148 313.383 24.4629 314.18 23.959C314.977 23.4551 315.381 22.7871 315.393 21.9551ZM332.074 3.375V7.98047H339.316V10.4941H332.074V20.8301C332.074 21.5684 332.168 22.1777 332.355 22.6582C332.543 23.1387 332.801 23.5254 333.129 23.8184C333.457 24.0996 333.832 24.2988 334.254 24.416C334.688 24.5332 335.145 24.5918 335.625 24.5918C335.977 24.5918 336.34 24.5742 336.715 24.5391C337.09 24.4922 337.453 24.4395 337.805 24.3809C338.168 24.3223 338.502 24.2637 338.807 24.2051C339.123 24.1348 339.381 24.0762 339.58 24.0293L340.037 26.332C339.768 26.4961 339.439 26.6426 339.053 26.7715C338.666 26.8887 338.244 26.9883 337.787 27.0703C337.33 27.1641 336.844 27.2344 336.328 27.2812C335.824 27.3281 335.32 27.3516 334.816 27.3516C333.973 27.3516 333.182 27.2344 332.443 27C331.717 26.7539 331.084 26.373 330.545 25.8574C330.006 25.3301 329.578 24.6562 329.262 23.8359C328.957 23.0039 328.805 22.002 328.805 20.8301V10.4941H323.812V7.98047H328.805V3.375H332.074ZM346.506 7.98047H356.227V24.1875H362.432V27H346.506V24.1875H352.975V10.8105H346.506V7.98047ZM352.553 2.98828C352.553 2.44922 352.711 1.99805 353.027 1.63477C353.355 1.25977 353.848 1.07227 354.504 1.07227C355.148 1.07227 355.635 1.25977 355.963 1.63477C356.291 1.99805 356.455 2.44922 356.455 2.98828C356.455 3.51562 356.291 3.95508 355.963 4.30664C355.635 4.6582 355.148 4.83398 354.504 4.83398C353.848 4.83398 353.355 4.6582 353.027 4.30664C352.711 3.95508 352.553 3.51562 352.553 2.98828ZM370.535 7.98047L370.764 10.793C371.455 9.80859 372.305 9.04102 373.312 8.49023C374.32 7.92773 375.445 7.64063 376.688 7.62891C377.684 7.62891 378.586 7.76953 379.395 8.05078C380.215 8.33203 380.912 8.77148 381.486 9.36914C382.061 9.9668 382.5 10.7285 382.805 11.6543C383.121 12.5684 383.279 13.6582 383.279 14.9238V27H380.027V14.9941C380.027 14.1504 379.934 13.4355 379.746 12.8496C379.559 12.2637 379.277 11.7891 378.902 11.4258C378.539 11.0625 378.088 10.7988 377.549 10.6348C377.021 10.4707 376.412 10.3887 375.721 10.3887C374.631 10.3887 373.67 10.6641 372.838 11.2148C372.018 11.7539 371.361 12.4688 370.869 13.3594V27H367.617V7.98047H370.535Z" fill="#386DFF"/>
</svg>
